# xmcd
#
# Track frame offsets:
# 150
# 33778
# 74031
# 99662
# 118334
# 143930
# 167318
#
# Disc length: 2290 seconds
#
#
# Revision: 0
# Processed by: cddbd v1.5.2PL0 Copyright (c) Steve Scherf et al.
# Submitted via: FreeRIP 2.945 
#
DISCID=6008f007
DTITLE=Zapp - Zapp III
DYEAR=1900
DGENRE=Funk
TTITLE0=Heartbreaker (Part I, Part II)
TTITLE1=I Can Make You Dance
TTITLE2=Play Some Blues
TTITLE3=Spend My Whole Life
TTITLE4=We Need The Buck
TTITLE5=Tut-Tut (Jazz)
TTITLE6=Doo Wa Ditty (Blow That Thing) [Live with Intro By Mo Ostin]
EXTD=
EXTT0=
EXTT1=
EXTT2=
EXTT3=
EXTT4=
EXTT5=
EXTT6=
PLAYORDER=
